<svg id="flat" height="512" viewBox="0 0 512 512" width="512" xmlns="http://www.w3.org/2000/svg"><path d="m184 88a64 64 0 0 1 64-64h104v104h-168z" fill="#ffceb6"/><path d="m112 96h208v152h-208z" fill="#db8638"/><path d="m408 488-48-240h-288l-48 240z" fill="#ffc431"/><path d="m408 488h-96l2.83-14.14 37.17-185.86 8-40 8 40 37.17 185.86z" fill="#ffb401"/><path d="m264 304h-16v-72a40 40 0 0 0 -80 0v72h-16v-72a56 56 0 0 1 112 0z" fill="#ffe28f"/><path d="m136 296h48v16h-48z" fill="#ffb401"/><path d="m232 296h48v16h-48z" fill="#ffb401"/><path d="m224 56v90.05268a13.94732 13.94732 0 0 0 13.94732 13.94732 13.94732 13.94732 0 0 0 13.23159-9.53679l12.82109-38.46321a28.94424 28.94424 0 0 0 16-25.88851v-30.11149z" fill="#ffceb6"/><path d="m192 96v48l16-16 16 16v-48z" fill="#f7a156"/><path d="m352 24h144v104h-144z" fill="#548aff"/><path d="m408 488h-11.31l-36.69-36.69-36.69 36.69h-11.31l2.83-14.14 37.17-37.17v-148.69l8-40 8 40v148.69l37.17 37.17z" fill="#ffa100"/><g fill="#ffbfa1"><rect height="40" rx="7.844" width="16" x="216" y="56"/><path d="m263.59493 111.19-.19764-.39522a7.80764 7.80764 0 0 1 1.84653-9.26094 20.82112 20.82112 0 0 0 6.75618-15.42251v-22.26691a7.84442 7.84442 0 0 1 7.84442-7.84442h.31116a7.84442 7.84442 0 0 1 7.84442 7.84442v22.26691a36.72576 36.72576 0 0 1 -12.204 27.46411 7.83234 7.83234 0 0 1 -12.20107-2.38544z"/></g></svg>